<?xml version="1.0" standalone="no"?>
<!DOCTYPE svg PUBLIC "-//W3C//DTD SVG 20010904//EN"
 "http://www.w3.org/TR/2001/REC-SVG-20010904/DTD/svg10.dtd">
<svg version="1.0" xmlns="http://www.w3.org/2000/svg"
 width="260.000000pt" height="260.000000pt" viewBox="0 0 260.000000 260.000000"
 preserveAspectRatio="xMidYMid meet">
<metadata>
Created by potrace 1.11, written by Peter Selinger 2001-2013
</metadata>
<g transform="translate(0.000000,260.000000) scale(0.100000,-0.100000)"
fill="#000000" stroke="none">
<path d="M1207 1819 l-46 -84 137 -7 c75 -3 166 -9 201 -12 l63 -5 -6 37 c-4
20 -14 61 -22 90 l-15 52 -67 0 c-37 0 -97 3 -133 6 l-66 7 -46 -84z"/>
<path d="M1045 1538 c-21 -40 -47 -86 -58 -101 -10 -16 -17 -30 -14 -33 7 -7
605 -74 664 -74 12 0 8 17 -32 172 l-17 67 -52 5 c-28 3 -118 10 -201 16 -82
6 -173 13 -201 16 l-51 5 -38 -73z"/>
<path d="M852 1219 c-9 -17 -36 -63 -59 -102 l-42 -72 27 -7 c32 -9 260 -32
507 -53 99 -9 238 -22 309 -30 71 -9 130 -14 132 -12 4 3 -35 220 -40 225 -2
1 -162 18 -357 37 -195 19 -378 37 -407 40 -51 5 -53 4 -70 -26z"/>
<path d="M490 930 c0 -6 37 -10 93 -9 76 1 85 3 52 10 -56 11 -145 11 -145 -1z"/>
<path d="M1820 864 c-36 -8 -66 -18 -68 -22 -1 -5 -98 -7 -215 -4 -159 3 -276
-1 -467 -17 -140 -12 -287 -21 -327 -21 -63 0 -72 2 -78 20 -7 22 -25 27 -25
8 0 -7 8 -35 19 -63 28 -74 48 -82 163 -66 61 9 222 15 463 17 321 3 552 8
592 13 6 0 17 17 23 37 7 20 18 48 26 62 29 57 13 62 -106 36z"/>
<path d="M2110 766 c0 -2 8 -10 18 -17 15 -13 16 -12 3 4 -13 16 -21 21 -21
13z"/>
</g>
</svg>
